<svg id="github" xmlns="http://www.w3.org/2000/svg" width="49.996" height="49.996" viewBox="0 0 49.996 49.996">
  <g id="Grupo_101" data-name="Grupo 101">
    <path id="Trazado_212" data-name="Trazado 212" d="M154.573,352.52q-.521.1-.456.488t.586.26q.521-.13.456-.456Q155.094,352.455,154.573,352.52Z" transform="translate(-136.541 -312.322)" fill="#fff"/>
    <path id="Trazado_213" data-name="Trazado 213" d="M137.851,354.817c-.347,0-.521.119-.521.358q0,.423.553.358.521,0,.521-.358Q138.4,354.752,137.851,354.817Z" transform="translate(-121.674 -314.358)" fill="#fff"/>
    <path id="Trazado_214" data-name="Trazado 214" d="M119.437,351.982q-.13.358.423.488.488.194.618-.2.1-.358-.423-.521C119.73,351.668,119.524,351.743,119.437,351.982Z" transform="translate(-105.799 -311.621)" fill="#fff"/>
    <path id="Trazado_215" data-name="Trazado 215" d="M47.245,2.75A9.029,9.029,0,0,0,40.621,0H9.374A9.031,9.031,0,0,0,2.75,2.75,9.03,9.03,0,0,0,0,9.374V40.622a9.029,9.029,0,0,0,2.75,6.623A9.03,9.03,0,0,0,9.374,50h7.291a8.8,8.8,0,0,0,1.074-.048,1.26,1.26,0,0,0,.716-.424,1.516,1.516,0,0,0,.358-1.09q0-.1-.016-2.214t-.016-3.353l-.749.13a9.58,9.58,0,0,1-1.807.114,13.9,13.9,0,0,1-2.262-.228,5.071,5.071,0,0,1-2.181-.976,4.131,4.131,0,0,1-1.432-2l-.326-.749A8.131,8.131,0,0,0,9,37.5,3.928,3.928,0,0,0,7.583,36.26L7.356,36.1a2.394,2.394,0,0,1-.423-.391,1.809,1.809,0,0,1-.293-.456q-.1-.228.163-.375a2.116,2.116,0,0,1,.944-.146l.651.1a4.745,4.745,0,0,1,1.611.781A5.253,5.253,0,0,1,11.587,37.3a5.736,5.736,0,0,0,1.807,2.034,3.83,3.83,0,0,0,2.132.7,9.247,9.247,0,0,0,1.855-.162,6.48,6.48,0,0,0,1.465-.489,5.276,5.276,0,0,1,1.595-3.353,22.289,22.289,0,0,1-3.336-.586,13.3,13.3,0,0,1-3.059-1.27,8.76,8.76,0,0,1-2.62-2.181,10.485,10.485,0,0,1-1.709-3.418,16.256,16.256,0,0,1-.667-4.883,9.494,9.494,0,0,1,2.572-6.705,8.751,8.751,0,0,1,.228-6.64,4.561,4.561,0,0,1,2.8.439,19.63,19.63,0,0,1,2.718,1.253q.863.52,1.383.879a23.5,23.5,0,0,1,12.5,0l1.237-.781a17.51,17.51,0,0,1,2.995-1.432,4.264,4.264,0,0,1,2.637-.358,8.664,8.664,0,0,1,.26,6.64,9.495,9.495,0,0,1,2.572,6.705,16.411,16.411,0,0,1-.667,4.9,10.056,10.056,0,0,1-1.725,3.418,9.1,9.1,0,0,1-2.636,2.165,13.279,13.279,0,0,1-3.06,1.269,22.273,22.273,0,0,1-3.336.587,5.8,5.8,0,0,1,1.692,4.622v7.78a2.1,2.1,0,0,0,.162.9.9.9,0,0,0,.521.472,2.884,2.884,0,0,0,.635.162,7.307,7.307,0,0,0,.8.033h7.291A9.391,9.391,0,0,0,50,40.62V9.374A9.031,9.031,0,0,0,47.245,2.75Z" fill="#fff"/>
    <path id="Trazado_216" data-name="Trazado 216" d="M86.019,318.585q-.228.162.065.52.326.325.521.1.228-.162-.066-.521Q86.215,318.39,86.019,318.585Z" transform="translate(-76.124 -282.195)" fill="#fff"/>
    <path id="Trazado_217" data-name="Trazado 217" d="M77.2,311.263q-.1.228.228.391a.278.278,0,0,0,.423-.065q.1-.228-.228-.391Q77.3,311.1,77.2,311.263Z" transform="translate(-68.378 -275.687)" fill="#fff"/>
    <path id="Trazado_218" data-name="Trazado 218" d="M94.506,329.709q-.293.162,0,.586t.553.228q.293-.228,0-.619C94.886,329.623,94.7,329.557,94.506,329.709Z" transform="translate(-83.602 -292.05)" fill="#fff"/>
    <path id="Trazado_219" data-name="Trazado 219" d="M104.708,342.2c-.2.174-.152.379.13.619q.39.39.651.1.261-.26-.13-.618Q104.969,341.908,104.708,342.2Z" transform="translate(-92.665 -303.077)" fill="#fff"/>
  </g>
</svg>
