<svg id="linkedin" xmlns="http://www.w3.org/2000/svg" width="50.035" height="49.995" viewBox="0 0 50.035 49.995">
  <g id="Grupo_99" data-name="Grupo 99" transform="translate(0 0)">
    <path id="Trazado_204" data-name="Trazado 204" d="M37.457.2H12.539A12.565,12.565,0,0,0,0,12.739V37.7A12.557,12.557,0,0,0,12.539,50.2H37.5A12.565,12.565,0,0,0,50.035,37.657V12.739A12.625,12.625,0,0,0,37.457.2ZM16.665,40.673H9.523V20.04h7.142ZM13.054,16.865a3.65,3.65,0,1,1,3.65-3.65A3.692,3.692,0,0,1,13.054,16.865ZM40.512,40.673H34.521v-10c0-2.42-.317-5.515-3.611-5.515-3.373,0-3.928,2.619-3.928,5.357V40.673H21.03V20.04h5.555v2.778h.159C27.617,21.23,29.64,20,32.815,20c6.547,0,7.7,3.77,7.7,9.364V40.673Z" transform="translate(0 -0.2)" fill="#fff"/>
  </g>
</svg>
