<svg xmlns="http://www.w3.org/2000/svg" width="49.996" height="49.996" viewBox="0 0 49.996 49.996">
  <path id="Trazado_222" data-name="Trazado 222" d="M37.6,50H12.4a12.491,12.491,0,0,1-2.5-.252,12.332,12.332,0,0,1-4.434-1.866A12.436,12.436,0,0,1,.974,42.422a12.337,12.337,0,0,1-.723-2.328A12.491,12.491,0,0,1,0,37.6V12.4A12.491,12.491,0,0,1,.252,9.9,12.332,12.332,0,0,1,2.118,5.467,12.436,12.436,0,0,1,7.573.974,12.337,12.337,0,0,1,9.9.252,12.491,12.491,0,0,1,12.4,0H37.6a12.491,12.491,0,0,1,2.5.252,12.332,12.332,0,0,1,4.434,1.866,12.436,12.436,0,0,1,4.492,5.456A12.338,12.338,0,0,1,49.744,9.9,12.491,12.491,0,0,1,50,12.4V37.6a12.491,12.491,0,0,1-.252,2.5,12.332,12.332,0,0,1-1.866,4.434,12.436,12.436,0,0,1-5.456,4.492,12.337,12.337,0,0,1-2.328.723A12.491,12.491,0,0,1,37.6,50ZM10.713,34h0a16.457,16.457,0,0,0,4.227,1.943,16.724,16.724,0,0,0,4.768.688,16.9,16.9,0,0,0,7.16-1.518,15.678,15.678,0,0,0,2.862-1.719,16.168,16.168,0,0,0,2.369-2.2,17.023,17.023,0,0,0,1.863-2.564,17.628,17.628,0,0,0,1.345-2.808,17.441,17.441,0,0,0,.816-2.934,16.217,16.217,0,0,0,.275-2.941c0-.277-.011-.539-.022-.758a11.718,11.718,0,0,0,2.939-3.044h0a12.272,12.272,0,0,1-3.378.926,5.834,5.834,0,0,0,2.58-3.24A11.735,11.735,0,0,1,34.8,15.247a5.867,5.867,0,0,0-4.283-1.856,5.826,5.826,0,0,0-3.281,1,5.883,5.883,0,0,0-2.12,2.582,5.832,5.832,0,0,0-.459,2.279,6,6,0,0,0,.136,1.337,16.625,16.625,0,0,1-3.537-.558,16.522,16.522,0,0,1-3.247-1.263,16.7,16.7,0,0,1-2.876-1.886A16.882,16.882,0,0,1,12.7,14.459a6.088,6.088,0,0,0-.591,1.406,5.838,5.838,0,0,0,.505,4.365A5.9,5.9,0,0,0,14.507,22.3a5.555,5.555,0,0,1-1.385-.207,5.947,5.947,0,0,1-1.265-.516v.064a5.852,5.852,0,0,0,1.349,3.745A5.913,5.913,0,0,0,14.7,26.67a5.825,5.825,0,0,0,1.859.73,6.132,6.132,0,0,1-1.569.194,5.218,5.218,0,0,1-1.078-.1,5.949,5.949,0,0,0,3.648,3.75,5.833,5.833,0,0,0,1.83.335,11.786,11.786,0,0,1-7.271,2.5A10.974,10.974,0,0,1,10.713,34Z" fill="#fff"/>
</svg>
