<svg id="Icons-Sibelclan-_29" xmlns="http://www.w3.org/2000/svg" width="84.616" height="84.587" viewBox="0 0 84.616 84.587">
    <defs>
        <style>
            .cls-2{fill:#182935}
        </style>
    </defs>
    <g id="Grupo_4550" data-name="Grupo 4550">
        <path id="Trazado_257" data-name="Trazado 257" d="M127.237 27.279H113.6v-7.852a10.917 10.917 0 1 1 13.639 0v7.851z" transform="translate(-78.124)" style="fill:#05e69b"/>
        <path id="Trazado_258" data-name="Trazado 258" class="cls-2" d="M135.39 37.439h-6.82v-5.7a4.1 4.1 0 1 0-2.751 0v5.7H119v2.751h16.361l.029-2.751zm-8.2-10.917a1.376 1.376 0 0 1 1.38 1.378 1.375 1.375 0 1 1-2.751 0 1.414 1.414 0 0 1 1.381-1.378z" transform="translate(-84.902 -16.98)"/>
        <path id="Trazado_259" data-name="Trazado 259" class="cls-2" d="m108.594 205.5-1.49 2.292A15.659 15.659 0 0 1 114.325 221v7.479H97.361l9.943-17.049-2.35-1.375-8.367 14.356-8.367-14.356-2.35 1.375 9.943 17.049H78.851V221a15.659 15.659 0 0 1 7.221-13.21l-1.49-2.292A18.4 18.4 0 0 0 76.1 221v10.2h40.947V221a18.412 18.412 0 0 0-8.453-15.5z" transform="translate(-54.294 -146.616)"/>
        <path id="Trazado_260" data-name="Trazado 260" class="cls-2" d="M94.8 124.572a15.072 15.072 0 1 0 15.072-15.072A15.09 15.09 0 0 0 94.8 124.572zm27.393 0a12.321 12.321 0 1 1-12.321-12.321 12.339 12.339 0 0 1 12.321 12.321z" transform="translate(-67.636 -78.124)"/>
        <path id="Trazado_261" data-name="Trazado 261" class="cls-2" d="M36.982 112.678a12.571 12.571 0 0 1-3.41.487 12.321 12.321 0 1 1 9.542-20.115l2.12-1.719a15.1 15.1 0 1 0-7.507 24.012z" transform="translate(-13.199 -61.215)"/>
        <path id="Trazado_262" data-name="Trazado 262" class="cls-2" d="M2.722 197.2a15.659 15.659 0 0 1 7.221-13.21l-1.49-2.29A18.376 18.376 0 0 0 0 197.2v10.2h17.737v-2.722H2.722z" transform="translate(0 -129.636)"/>
        <path id="Trazado_263" data-name="Trazado 263" class="cls-2" d="M209.534 100.772A15.069 15.069 0 0 0 182.8 91.23l2.12 1.719a12.321 12.321 0 1 1 9.542 20.115 12.9 12.9 0 0 1-3.41-.487l-.745 2.636a14.871 14.871 0 0 0 4.155.6 15.048 15.048 0 0 0 15.072-15.041z" transform="translate(-130.42 -61.143)"/>
        <path id="Trazado_264" data-name="Trazado 264" class="cls-2" d="m239.231 181.7-1.49 2.292a15.659 15.659 0 0 1 7.221 13.21v7.479H228.6v2.719h19.112v-10.2a18.47 18.47 0 0 0-8.481-15.5z" transform="translate(-163.097 -129.635)"/>
    </g>
</svg>
