<svg xmlns="http://www.w3.org/2000/svg" width="130.663" height="63.895" viewBox="0 0 130.663 63.895">
    <defs>
        <style>
            .cls-2{fill:#05e69b}
        </style>
    </defs>
    <g id="Grupo_4568" data-name="Grupo 4568" transform="translate(5196.293 -2115.761)">
        <path id="Sustracción_1" data-name="Sustracción 1" d="M105.665 55.913a14.192 14.192 0 0 0 .335-5.526c3.088 0 19.293-.028 19.321-.03l-.106-14.6a8.182 8.182 0 0 0-8.173-8.173H5.448v14.6a8.182 8.182 0 0 0 8.173 8.173c.016.019 1.155.034 3.3.046a14.2 14.2 0 0 0 .309 5.405H13.622A13.637 13.637 0 0 1 0 42.185V24.861a2.727 2.727 0 0 1 2.724-2.724h9.708l7.779-12.119A21.709 21.709 0 0 1 38.551 0h32.826a21.123 21.123 0 0 1 7.068 1.14 20.914 20.914 0 0 1 5.66 3.053c3.424 2.55 6.257 5.993 9.257 9.638a92.112 92.112 0 0 0 7.428 8.305h16.251a13.636 13.636 0 0 1 13.621 13.621v14.7a5.351 5.351 0 0 1-5.345 5.345c-.017.067-6.443.098-19.652.111zM58.868 5.448v16.689h34.643a69.608 69.608 0 0 1-5.587-6.249 42.508 42.508 0 0 0-6.979-7.272 15.255 15.255 0 0 0-9.568-3.167zm-20.317 0A16.28 16.28 0 0 0 24.8 12.963l-5.9 9.174h34.519V5.448zM78.467 55.9c-9.493-.009-20.207-.024-32.754-.045h-1.249a14.194 14.194 0 0 0 .327-5.417c8.966 0 20.183-.008 33.34-.021a14.2 14.2 0 0 0 .336 5.483z" transform="translate(-5196.293 2115.761)" style="fill:#1b2433"/>
        <circle id="Elipse_3" data-name="Elipse 3" class="cls-2" cx="11.581" cy="11.581" r="11.581" transform="translate(-5115.808 2156.494)"/>
        <circle id="Elipse_5" data-name="Elipse 5" class="cls-2" cx="11.581" cy="11.581" r="11.581" transform="translate(-5177.024 2156.494)"/>
    </g>
</svg>
