<svg xmlns="http://www.w3.org/2000/svg" width="102.885" height="102.919" viewBox="0 0 102.885 102.919">
  <g id="Grupo_121" data-name="Grupo 121" transform="translate(-1096.115 -2350.519)">
    <ellipse id="Elipse_42" data-name="Elipse 42" cx="14.94" cy="14.94" rx="14.94" ry="14.94" transform="translate(1132.617 2377.072)" fill="#05e69b"/>
    <path id="Trazado_230" data-name="Trazado 230" d="M102.885,0H0V66.383H8.423a13.463,13.463,0,0,0-.139,1.664,11.613,11.613,0,1,0,23.225,0,13.463,13.463,0,0,0-.139-1.664H71.478a13.463,13.463,0,0,0-.139,1.664,11.613,11.613,0,1,0,23.225,0,13.465,13.465,0,0,0-.139-1.664h8.423V0ZM99.591,3.328v9.949H3.328V3.328Zm-79.659,73a8.285,8.285,0,1,1,8.285-8.285A8.285,8.285,0,0,1,19.932,76.331Zm63.055,0a8.285,8.285,0,1,1,8.285-8.285A8.285,8.285,0,0,1,82.987,76.331ZM93.456,63.055a11.561,11.561,0,0,0-20.937,0H30.4a11.561,11.561,0,0,0-20.937,0H3.328V16.6H99.591V63.09H93.456Z" transform="translate(1096.115 2350.519)" fill="#182935"/>
    <rect id="Rectángulo_207" data-name="Rectángulo 207" width="3.328" height="3.328" transform="translate(1102.771 2357.175)" fill="#182935"/>
    <rect id="Rectángulo_208" data-name="Rectángulo 208" width="3.328" height="3.328" transform="translate(1109.392 2357.175)" fill="#182935"/>
    <rect id="Rectángulo_209" data-name="Rectángulo 209" width="3.328" height="3.328" transform="translate(1116.048 2357.175)" fill="#182935"/>
    <path id="Trazado_231" data-name="Trazado 231" d="M9.6,246.4v6.656H42.809V246.4a16.6,16.6,0,0,0-33.209,0Zm16.6-13.277A13.3,13.3,0,0,1,39.481,246.4v3.328H36.153v-6.656H32.825v6.656H19.549v-6.656H16.221v6.656H12.893V246.4A13.33,13.33,0,0,1,26.2,233.128Z" transform="translate(1089.843 2200.378)" fill="#182935"/>
    <path id="Trazado_232" data-name="Trazado 232" d="M191.5,246.4v6.656h33.209V246.4a16.6,16.6,0,0,0-33.209,0Zm16.6-13.277A13.3,13.3,0,0,1,221.381,246.4v3.328h-3.328v-6.656h-3.328v6.656H201.449v-6.656h-3.328v6.656h-3.328V246.4A13.352,13.352,0,0,1,208.1,233.128Z" transform="translate(970.998 2200.378)" fill="#182935"/>
    <path id="Trazado_233" data-name="Trazado 233" d="M126.513,86.2a11.613,11.613,0,1,0,11.613,11.613A11.613,11.613,0,0,0,126.513,86.2Zm0,19.9a8.285,8.285,0,1,1,8.285-8.285A8.285,8.285,0,0,1,126.513,106.1Z" transform="translate(1021.045 2294.2)" fill="#182935"/>
    <path id="Trazado_234" data-name="Trazado 234" d="M119.581,123.086l-3.12-1.109a18.235,18.235,0,0,1-35.219-3.293l3.986,2.011,1.491-2.981-7.7-3.813L73.2,119.724l2.357,2.357,2.5-2.5a21.517,21.517,0,0,0,41.528,3.5Z" transform="translate(1048.29 2276.102)" fill="#182935"/>
    <path id="Trazado_235" data-name="Trazado 235" d="M131.363,75.322A21.548,21.548,0,0,0,89.8,71.786L92.92,72.9a18.235,18.235,0,0,1,35.219,3.293l-3.986-2.011-1.491,2.981,7.7,3.848,5.824-5.824-2.357-2.357Z" transform="translate(1037.444 2313.017)" fill="#182935"/>
  </g>
</svg>
