<svg xmlns="http://www.w3.org/2000/svg" width="102.885" height="102.919" viewBox="0 0 102.885 102.919">
  <g id="Grupo_123" data-name="Grupo 123" transform="translate(-848.428 -2350.232)">
    <path id="Trazado_243" data-name="Trazado 243" d="M105.357,32.477,92.081,19.2,78.8,32.477l-16.6-8.32,6.656,29.881h46.485l6.621-29.881Z" transform="translate(807.789 2337.688)" fill="#05e69b"/>
    <path id="Trazado_244" data-name="Trazado 244" d="M94.6,19.932H92.936V0H9.949V19.932H8.285A8.285,8.285,0,0,0,0,28.217V84.651a8.285,8.285,0,0,0,8.285,8.285H28.217v6.656H21.561v3.328H81.323V99.591H74.668V92.936H94.6a8.285,8.285,0,0,0,8.285-8.285V28.217A8.285,8.285,0,0,0,94.6,19.932ZM13.277,3.328H89.608V69.711H13.277Zm58.1,96.264H31.545V92.936h39.83ZM94.6,89.608H8.285a4.993,4.993,0,0,1-4.992-4.992V82.952H89.608V79.625H3.328V28.217a4.986,4.986,0,0,1,4.957-4.992H9.949V73H92.936V23.225H94.6a4.993,4.993,0,0,1,4.992,4.992V79.659H92.936v3.328h6.656v1.664A4.986,4.986,0,0,1,94.6,89.608Z" transform="translate(848.428 2350.232)" fill="#182935"/>
    <path id="Trazado_245" data-name="Trazado 245" d="M106.9,84.728h7.384v18.234H51.228V84.728h7.349V81.4H47.9v24.889h69.71V81.4H106.9Z" transform="translate(817.132 2297.049)" fill="#182935"/>
    <path id="Trazado_246" data-name="Trazado 246" d="M132.785,74.07a8.285,8.285,0,1,0-8.285-8.285A8.285,8.285,0,0,0,132.785,74.07Zm0-13.277a4.992,4.992,0,1,1-4.992,4.992A4.993,4.993,0,0,1,132.785,60.793Z" transform="translate(767.085 2312.664)" fill="#182935"/>
    <rect id="Rectángulo_219" data-name="Rectángulo 219" width="33.209" height="3.328" transform="translate(865.032 2406.666)" fill="#182935"/>
    <rect id="Rectángulo_220" data-name="Rectángulo 220" width="33.209" height="3.328" transform="translate(901.534 2406.666)" fill="#182935"/>
    <rect id="Rectángulo_221" data-name="Rectángulo 221" width="33.209" height="3.328" transform="translate(865.032 2413.287)" fill="#182935"/>
    <rect id="Rectángulo_222" data-name="Rectángulo 222" width="3.328" height="3.328" transform="translate(931.415 2413.287)" fill="#182935"/>
    <rect id="Rectángulo_223" data-name="Rectángulo 223" width="26.553" height="3.328" transform="translate(901.534 2413.287)" fill="#182935"/>
  </g>
</svg>
