<svg xmlns="http://www.w3.org/2000/svg" width="24.522" height="24.522" viewBox="0 0 24.522 24.522">
  <path id="Trazado_2379" data-name="Trazado 2379" d="M19.483,24.522H5.039A5.039,5.039,0,0,1,0,19.483V5.039A5.039,5.039,0,0,1,5.039,0H19.483a5.039,5.039,0,0,1,5.039,5.039V19.483a5.039,5.039,0,0,1-5.039,5.039ZM13.8,7.138,9.367,17.115H10.93l4.434-9.977H13.8Zm2,2.25v1.984l2.228.8-2.228.8v1.984l3.991-1.884v-1.8Zm-6.862,0L4.943,11.273v1.8l3.991,1.884V12.969l-2.228-.8,2.228-.8Z" fill="#182935"/>
</svg>
