<?xml version="1.0" encoding="UTF-8"?>
<svg xmlns="http://www.w3.org/2000/svg" width="240" height="77" viewBox="0 0 240 77">
   <g id="Grupo_196" data-name="Grupo 196" transform="translate(-146 -69)">
      <g id="Grupo_175" data-name="Grupo 175" transform="translate(10203 -1814)">
         <path id="Trazado_1" data-name="Trazado 1" d="M623.461,924.24v7.429h-31.1V888.228h30.786v7.429H598.718v10.577h22.35v7.177h-22.35V924.24Z" transform="translate(-10565.497 1012.87)" fill="#182935" />
         <path id="Trazado_2" data-name="Trazado 2" d="M648.264,915.678l11.521,15.991H652.86l-8.625-11.206h-.944l-8.625,11.206h-7.429l11.71-16.306-11.269-15.8h6.862l8.436,11.081h1.007l8.436-11.081h7.429Z" transform="translate(-10565.497 1012.87)" fill="#182935" />
         <path id="Trazado_3" data-name="Trazado 3" d="M694.663,918.134H666.521c1.2,4.343,5.54,7.24,11.332,7.24,4.092,0,7.744-1.323,9.7-3.211h6.736c-2.581,6.107-8.877,10.262-16.621,10.262-9.884,0-17.251-7.24-17.251-16.81S667.78,898.8,677.6,898.8s17.188,7.178,17.188,16.936c0,.756-.063,1.7-.126,2.393m-28.079-5.1h22.161c-1.2-4.281-5.667-7.177-11.144-7.177s-9.821,2.9-11.017,7.177" transform="translate(-10565.497 1012.87)" fill="#182935" />
         <path id="Trazado_4" data-name="Trazado 4" d="M733.38,899.561v32.108h-5.918v-6.8a13.817,13.817,0,0,1-12.4,7.555c-9.066,0-15.8-7.24-15.8-16.81s6.737-16.81,15.8-16.81a13.817,13.817,0,0,1,12.4,7.555v-6.8Zm-5.918,16.054c0-5.477-4.722-9.633-11.017-9.633-6.359,0-11.081,4.156-11.081,9.633s4.722,9.633,11.081,9.633c6.295,0,11.017-4.156,11.017-9.633" transform="translate(-10565.497 1012.87)" fill="#182935" />
         <rect id="Rectángulo_2" data-name="Rectángulo 2" width="5.981" height="45.33" transform="translate(-9823.744 1899.21)" fill="#182935" />
         <path id="Trazado_5" data-name="Trazado 5" d="M538.851,924.82A14.516,14.516,0,1,1,553.366,910.3a14.533,14.533,0,0,1-14.515,14.516m0-24.446a9.93,9.93,0,1,0,9.93,9.93,9.941,9.941,0,0,0-9.93-9.93" transform="translate(-10565.497 1012.87)" fill="#05e69b" />
         <path id="Trazado_6" data-name="Trazado 6" d="M543.237,910.3a4.386,4.386,0,1,0-4.386,4.386,4.386,4.386,0,0,0,4.386-4.386" transform="translate(-10565.497 1012.87)" fill="#05e69b" />
         <path id="Trazado_7" data-name="Trazado 7" d="M538.851,934.527a2.294,2.294,0,0,1-2.293-2.293V910.3a2.293,2.293,0,0,1,4.585,0v21.93a2.293,2.293,0,0,1-2.292,2.293" transform="translate(-10565.497 1012.87)" fill="#05e69b" />
         <path id="Trazado_8" data-name="Trazado 8" d="M563.074,934.527H514.628v-47.72a2.293,2.293,0,0,1,4.585,0v43.135h39.276V886.807a2.292,2.292,0,0,1,4.585,0Z" transform="translate(-10565.497 1012.87)" fill="#05e69b" />
         <path id="Trazado_9" data-name="Trazado 9" d="M538.888,890.691a113.115,113.115,0,0,1-28.17-3.549l-2.221-.571,1.143-4.441,2.22.571a108.98,108.98,0,0,0,53.684.1l2.222-.563,1.127,4.444-2.223.564a113.167,113.167,0,0,1-27.782,3.45" transform="translate(-10565.497 1012.87)" fill="#05e69b" />
      </g>
   </g>
</svg>